<?xml version="1.0" encoding="UTF-8"?>
<svg height="128px" viewBox="0 0 128 128" width="128px" xmlns="http://www.w3.org/2000/svg" xmlns:xlink="http://www.w3.org/1999/xlink">
    <linearGradient id="a" gradientTransform="matrix(0.249606 0 0 0.249602 0.012607 57.398224)" gradientUnits="userSpaceOnUse" x1="48.025253" x2="464.683594" y1="63.396973" y2="63.396973">
        <stop offset="0" stop-color="#1b744b"/>
        <stop offset="0.0326083" stop-color="#2dbf7c" stop-opacity="0.996078"/>
        <stop offset="0.0846122" stop-color="#1c764c" stop-opacity="0.980392"/>
        <stop offset="0.924554" stop-color="#155a3a" stop-opacity="0.980392"/>
        <stop offset="0.968679" stop-color="#2fc781" stop-opacity="0.968627"/>
        <stop offset="1" stop-color="#1b724a" stop-opacity="0.968627"/>
    </linearGradient>
    <clipPath id="b">
        <path d="m 18 108 h 86 v 10 h -86 z m 0 0"/>
    </clipPath>
    <clipPath id="c">
        <path d="m 16.496094 28.445312 h 96.175781 c 4.417969 0 8 3.574219 8 7.988282 v 73.578125 c 0 4.414062 -3.582031 7.988281 -8 7.988281 h -96.175781 c -4.417969 0 -8 -3.574219 -8 -7.988281 v -73.578125 c 0 -4.414063 3.582031 -7.988282 8 -7.988282 z m 0 0"/>
    </clipPath>
    <linearGradient id="d" gradientTransform="matrix(0.25 0 0 0.249602 0.494649 57.398224)" gradientUnits="userSpaceOnUse" x1="94.021408" x2="94.021393" y1="194.219437" y2="234.219437">
        <stop offset="0" stop-color="#f9f06b"/>
        <stop offset="0.512323" stop-color="#fcf7ac"/>
        <stop offset="1" stop-color="#f9f06b"/>
    </linearGradient>
    <clipPath id="e">
        <path d="m 18 116 h 76 v 2 h -76 z m 0 0"/>
    </clipPath>
    <clipPath id="f">
        <path d="m 16.496094 28.445312 h 96.175781 c 4.417969 0 8 3.574219 8 7.988282 v 73.578125 c 0 4.414062 -3.582031 7.988281 -8 7.988281 h -96.175781 c -4.417969 0 -8 -3.574219 -8 -7.988281 v -73.578125 c 0 -4.414063 3.582031 -7.988282 8 -7.988282 z m 0 0"/>
    </clipPath>
    <linearGradient id="g" gradientTransform="matrix(0.25 0 0 0.249602 0.494649 57.398224)" gradientUnits="userSpaceOnUse" x1="202.021408" x2="202.021408" y1="242.793976" y2="234.781204">
        <stop offset="0" stop-color="#c09608"/>
        <stop offset="1" stop-color="#f6ca30"/>
    </linearGradient>
    <clipPath id="h">
        <path d="m 98 115 h 6 v 3 h -6 z m 0 0"/>
    </clipPath>
    <clipPath id="i">
        <path d="m 16.496094 28.445312 h 96.175781 c 4.417969 0 8 3.574219 8 7.988282 v 73.578125 c 0 4.414062 -3.582031 7.988281 -8 7.988281 h -96.175781 c -4.417969 0 -8 -3.574219 -8 -7.988281 v -73.578125 c 0 -4.414063 3.582031 -7.988282 8 -7.988282 z m 0 0"/>
    </clipPath>
    <linearGradient id="j" gradientUnits="userSpaceOnUse" x1="12.000002" x2="116.000002" y1="28" y2="28">
        <stop offset="0" stop-color="#77767b"/>
        <stop offset="0.05" stop-color="#c0bfbc"/>
        <stop offset="0.1" stop-color="#9a9996"/>
        <stop offset="0.899999" stop-color="#9a9996"/>
        <stop offset="0.95" stop-color="#c0bfbc"/>
        <stop offset="1" stop-color="#77767b"/>
    </linearGradient>
    <linearGradient id="k" gradientUnits="userSpaceOnUse" x1="68" x2="68" y1="72.333344" y2="19.987244">
        <stop offset="0"/>
        <stop offset="1" stop-color="#0c492f"/>
    </linearGradient>
    <linearGradient id="l" gradientUnits="userSpaceOnUse" x1="96" x2="96" y1="48" y2="28">
        <stop offset="0" stop-opacity="0.145098"/>
        <stop offset="1" stop-opacity="0"/>
    </linearGradient>
    <path d="m 20 36 h 88 c 4.417969 0 8 3.582031 8 8 v 66 c 0 4.417969 -3.582031 8 -8 8 h -88 c -4.417969 0 -8 -3.582031 -8 -8 v -66 c 0 -4.417969 3.582031 -8 8 -8 z m 0 0" fill="url(#a)"/>
    <path d="m 12 40.027344 v 67.945312 c 0 4.445313 3.5625 8.027344 7.988281 8.027344 h 88.023438 c 4.425781 0 7.988281 -3.582031 7.988281 -8.027344 v -67.945312 z m 0 0" fill="#2ec27e"/>
    <g fill="none" stroke="#f9f06b" stroke-width="8.00638" transform="matrix(0.25 0 0 0.249602 0.494649 57.398224)">
        <path d="m 242.052655 214.217165 v -19.499819 l -48 -24.0383 v -20.031917"/>
        <path d="m 82.021405 214.217165 v -19.499819 l 48 -24.0383 v -20.031917"/>
        <path d="m 122.021405 214.217165 v -19.499819 l 24.03125 -10.250707 v -33.81951"/>
        <path d="m 162.021405 210.742879 v -60.09575"/>
        <path d="m 202.052655 214.217165 v -19.499819 l -24.03125 -10.250707 v -33.81951"/>
        <path d="m 322.052655 214.217165 v -31.769368 h 18.015625 l 30.109375 -22.958454 v -12.01915"/>
        <path d="m 362.021405 214.217165 v -30.251324 l 24.03125 -18.091325 v -15.227387"/>
        <path d="m 281.521405 214.217165 v -19.499819 l -71.4375 -36.558248 v -12.01915"/>
        <path d="m 402.021405 214.217165 v -62.302391"/>
    </g>
    <g clip-path="url(#b)">
        <g clip-path="url(#c)">
            <path d="m 101 108.878906 c 1.660156 0 3 1.335938 3 2.996094 v 7.976562 c 0 1.660157 -1.339844 2.996094 -3 2.996094 s -3 -1.335937 -3 -2.996094 v -7.976562 c 0 -1.660156 1.339844 -2.996094 3 -2.996094 z m -10 0 c 1.660156 0 3 1.335938 3 2.996094 v 7.976562 c 0 1.660157 -1.339844 2.996094 -3 2.996094 s -3 -1.335937 -3 -2.996094 v -7.976562 c 0 -1.660156 1.339844 -2.996094 3 -2.996094 z m -10 0 c 1.660156 0 3 1.335938 3 2.996094 v 7.976562 c 0 1.660157 -1.339844 2.996094 -3 2.996094 s -3 -1.335937 -3 -2.996094 v -7.976562 c 0 -1.660156 1.339844 -2.996094 3 -2.996094 z m -10 0 c 1.660156 0 3 1.335938 3 2.996094 v 7.976562 c 0 1.660157 -1.339844 2.996094 -3 2.996094 s -3 -1.335937 -3 -2.996094 v -7.976562 c 0 -1.660156 1.339844 -2.996094 3 -2.996094 z m -10 0 c 1.660156 0 3 1.335938 3 2.996094 v 7.976562 c 0 1.660157 -1.339844 2.996094 -3 2.996094 s -3 -1.335937 -3 -2.996094 v -7.976562 c 0 -1.660156 1.339844 -2.996094 3 -2.996094 z m -10 0 c 1.660156 0 3 1.335938 3 2.996094 v 7.976562 c 0 1.660157 -1.339844 2.996094 -3 2.996094 s -3 -1.335937 -3 -2.996094 v -7.976562 c 0 -1.660156 1.339844 -2.996094 3 -2.996094 z m -10 0 c 1.660156 0 3 1.335938 3 2.996094 v 7.976562 c 0 1.660157 -1.339844 2.996094 -3 2.996094 s -3 -1.335937 -3 -2.996094 v -7.976562 c 0 -1.660156 1.339844 -2.996094 3 -2.996094 z m -10 0 c 1.660156 0 3 1.335938 3 2.996094 v 7.976562 c 0 1.660157 -1.339844 2.996094 -3 2.996094 s -3 -1.335937 -3 -2.996094 v -7.976562 c 0 -1.660156 1.339844 -2.996094 3 -2.996094 z m -10 0 c 1.660156 0 3 1.335938 3 2.996094 v 7.976562 c 0 1.660157 -1.339844 2.996094 -3 2.996094 s -3 -1.335937 -3 -2.996094 v -7.976562 c 0 -1.660156 1.339844 -2.996094 3 -2.996094 z m 0 0" fill="url(#d)"/>
        </g>
    </g>
    <g clip-path="url(#e)">
        <g clip-path="url(#f)">
            <path d="m 88 116 h 6 v 3.992188 h -6 z m -10 0 h 6 v 3.992188 h -6 z m -10 0 h 6 v 3.992188 h -6 z m -10 0 h 6 v 3.992188 h -6 z m -10 0 h 6 v 3.992188 h -6 z m -10 0 h 6 v 3.992188 h -6 z m -10 0 h 6 v 3.992188 h -6 z m -10 0 h 6 v 3.992188 h -6 z m 0 0" fill="url(#g)"/>
        </g>
    </g>
    <g clip-path="url(#h)">
        <g clip-path="url(#i)">
            <path d="m 98 115.859375 h 6 v 3.992187 h -6 z m 0 0" fill="#f5c211"/>
        </g>
    </g>
    <path d="m 12 106.972656 v 1 c 0 4.445313 3.5625 8.027344 7.988281 8.027344 h 88.023438 c 4.425781 0 7.988281 -3.582031 7.988281 -8.027344 v -1 c 0 4.445313 -3.5625 8.027344 -7.988281 8.027344 h -88.023438 c -4.425781 0 -7.988281 -3.582031 -7.988281 -8.027344 z m 0 0" fill="#ffffff" fill-opacity="0.12549"/>
    <path d="m 24.269531 16 h 79.460938 c 6.777343 0 12.269531 5.484375 12.269531 12.25 v 55.5 c 0 6.765625 -5.492188 12.25 -12.269531 12.25 h -79.460938 c -6.777343 0 -12.269531 -5.484375 -12.269531 -12.25 v -55.5 c 0 -6.765625 5.492188 -12.25 12.269531 -12.25 z m 0 0" fill="url(#j)"/>
    <path d="m 50 96 c 0 0.550781 -0.449219 1 -1 1 s -1 -0.449219 -1 -1 s 0.449219 -1 1 -1 s 1 0.449219 1 1 z m 0 0" fill="#f9f9f9"/>
    <path d="m 46 96 c 0 0.550781 -0.449219 1 -1 1 s -1 -0.449219 -1 -1 s 0.449219 -1 1 -1 s 1 0.449219 1 1 z m 0 0" fill="#f9f9f9"/>
    <path d="m 23.769531 12 h 80.460938 c 6.5 0 11.769531 5.261719 11.769531 11.75 v 57.425781 c 0 6.488281 -5.269531 11.75 -11.769531 11.75 h -80.460938 c -6.5 0 -11.769531 -5.261719 -11.769531 -11.75 v -57.425781 c 0 -6.488281 5.269531 -11.75 11.769531 -11.75 z m 0 0" fill="#deddda"/>
    <path d="m 24.550781 18 h 78.898438 c 3.617187 0 6.550781 2.933594 6.550781 6.550781 v 56.898438 c 0 3.617187 -2.933594 6.550781 -6.550781 6.550781 h -78.898438 c -3.617187 0 -6.550781 -2.933594 -6.550781 -6.550781 v -56.898438 c 0 -3.617187 2.933594 -6.550781 6.550781 -6.550781 z m 0 0" fill="url(#k)"/>
    <path d="m 34 96 c 0 0.550781 -0.449219 1 -1 1 s -1 -0.449219 -1 -1 s 0.449219 -1 1 -1 s 1 0.449219 1 1 z m 0 0" fill="#f9f9f9"/>
    <path d="m 38 96 c 0 0.550781 -0.449219 1 -1 1 s -1 -0.449219 -1 -1 s 0.449219 -1 1 -1 s 1 0.449219 1 1 z m 0 0" fill="#f9f9f9"/>
    <path d="m 42 96 c 0 0.550781 -0.449219 1 -1 1 s -1 -0.449219 -1 -1 s 0.449219 -1 1 -1 s 1 0.449219 1 1 z m 0 0" fill="#f9f9f9"/>
    <path d="m 54 96 c 0 0.550781 -0.449219 1 -1 1 s -1 -0.449219 -1 -1 s 0.449219 -1 1 -1 s 1 0.449219 1 1 z m 0 0" fill="#f9f9f9"/>
    <path d="m 94 96 c 0 0.550781 -0.449219 1 -1 1 s -1 -0.449219 -1 -1 s 0.449219 -1 1 -1 s 1 0.449219 1 1 z m 0 0" fill="#f9f9f9"/>
    <path d="m 98 96 c 0 0.550781 -0.449219 1 -1 1 s -1 -0.449219 -1 -1 s 0.449219 -1 1 -1 s 1 0.449219 1 1 z m 0 0" fill="#f9f9f9"/>
    <path d="m 102 96 c 0 0.550781 -0.449219 1 -1 1 s -1 -0.449219 -1 -1 s 0.449219 -1 1 -1 s 1 0.449219 1 1 z m 0 0" fill="#f9f9f9"/>
    <path d="m 24.269531 -28 h 79.460938 c 6.777343 0 12.269531 5.484375 12.269531 12.25 v 49.5 c 0 6.765625 -5.492188 12.25 -12.269531 12.25 h -79.460938 c -6.777343 0 -12.269531 -5.484375 -12.269531 -12.25 v -49.5 c 0 -6.765625 5.492188 -12.25 12.269531 -12.25 z m 0 0" fill="url(#l)"/>
    <path d="m 38.714844 65.382812 l -10.714844 -5.820312 v 3.613281 l 7.425781 3.539063 v 0.109375 l -7.425781 4 v 3.613281 l 10.714844 -6.28125 z m 0 0" fill="#8ff0a4"/>
    <path d="m 41.765625 76.941406 v 3.058594 h 12.234375 v -3.058594 z m 0 0" fill="#8ff0a4"/>
</svg>
