<?xml version="1.0" encoding="UTF-8"?>
<svg height="16px" viewBox="0 0 16 16" width="16px" xmlns="http://www.w3.org/2000/svg">
    <path d="m 2.730469 0 c -1.511719 0 -2.730469 1.21875 -2.730469 2.730469 v 2.539062 c 0 1.511719 1.21875 2.730469 2.730469 2.730469 h 1.769531 v 1.691406 l -4 2 v 0.945313 c -0.296875 0.171875 -0.5 0.492187 -0.5 0.863281 v 2.5 h 2 v -2.5 c 0 -0.371094 -0.203125 -0.691406 -0.5 -0.863281 v -0.328125 l 4 -2 v -2.308594 h 1 v 2.554688 l -2 1.15625 v 0.925781 c -0.296875 0.171875 -0.5 0.492187 -0.5 0.863281 v 2.5 h 2 v -2.5 c 0 -0.371094 -0.203125 -0.691406 -0.5 -0.863281 v -0.347657 l 2 -1.152343 v -3.136719 h 1 v 4.636719 c -0.296875 0.171875 -0.5 0.492187 -0.5 0.863281 v 2.5 h 2 v -2.5 c 0 -0.371094 -0.203125 -0.691406 -0.5 -0.863281 v -4.636719 h 1 v 3.136719 l 2 1.152343 v 0.347657 c -0.296875 0.171875 -0.5 0.492187 -0.5 0.863281 v 2.5 h 2 v -2.5 c 0 -0.371094 -0.203125 -0.691406 -0.5 -0.863281 v -0.925781 l -2 -1.15625 v -2.554688 h 1.769531 c 1.511719 0 2.730469 -1.21875 2.730469 -2.730469 v -2.539062 c 0 -1.511719 -1.21875 -2.730469 -2.730469 -2.730469 z m -0.234375 1.980469 c 0.132812 0 0.257812 0.050781 0.355468 0.144531 l 2.351563 2.355469 l -2.351563 2.351562 c -0.195312 0.195313 -0.515624 0.195313 -0.707031 0 c -0.195312 -0.191406 -0.195312 -0.511719 0 -0.707031 l 1.644531 -1.644531 l -1.644531 -1.648438 c -0.195312 -0.191406 -0.195312 -0.511719 0 -0.707031 c 0.09375 -0.09375 0.21875 -0.144531 0.351563 -0.144531 z m 3.503906 4.019531 h 3 c 0.277344 0 0.5 0.222656 0.5 0.5 s -0.222656 0.5 -0.5 0.5 h -3 c -0.277344 0 -0.5 -0.222656 -0.5 -0.5 s 0.222656 -0.5 0.5 -0.5 z m 0 0" fill="#241f31"/>
</svg>
